<!DOCTYPE svg PUBLIC "-//W3C//DTD SVG 1.1//EN" "http://www.w3.org/Graphics/SVG/1.1/DTD/svg11.dtd">
<svg version="1.1" xmlns="http://www.w3.org/2000/svg" xml:space="preserve" viewBox="0 0 390 300" height="600" width="780" stroke="#fff" strokeWidth="2" >
        <defs>
          <linearGradient id="cover" x1="50%" x2="70%" y1="0%" y2="100%">
            <stop offset="0%" stop-color="#0470bd" />
            <stop offset="100%" stop-color="#053a87" />
          </linearGradient>
        </defs>
        <defs>
          <linearGradient id="green" x1="40%" x2="100%" y1="0%" y2="50%">
            <stop offset="0%" stop-color="#a8d223" />
            <stop offset="100%" stop-color="#44940c" />
          </linearGradient>
        </defs>
        <defs>
          <linearGradient id="orange" x1="100%" x2="50%" y1="60%" y2="100%">
            <stop offset="0%" stop-color="#faae11" />
            <stop offset="100%" stop-color="#f8872b" />
          </linearGradient>
        </defs>
        <defs>
          <linearGradient id="blue" x1="100%" x2="30%" y1="60%" y2="100%">
            <stop offset="0%" stop-color="#08b5eb" />
            <stop offset="100%" stop-color="#0a7cae" />
          </linearGradient>
        </defs>

        <path fill="#fffa" d="
      M 20,40
      L 20,210 190,290 360,190 355,130 320,150 320,10 195,170 60,20 
      z"/>
        <g fill="url(#cover)">
          <path d="
              M 30,195 
              L 30,30 10,30 10,220
              C 50 230, 120 250, 190 300
              L 190 290
              C 150 250, 80,200 30 195
              Q 60 200 z"
          />
          <path
            d="
              M 190,300 
              C 270 250, 290 240, 380 220
              L 375,185
              C 300 210, 232 250, 190,290
              Z
            " />
        </g>

        <g fill="url(#green)" >
          <path d="
            M 170,250
            C 140 220, 90 190, 55 180
            L 55 10
            C 130 50, 170 90, 190 130
            C 195 150, 200 160, 195 190
            C 180 160,170 130,  90 80
            L 90,170
            C 120 190, 150 215, 173 250
            Z
            
            "/>
        </g>

        <path fill="url(#orange)"
          d="
           M 195,190
           C 200 110, 215 100, 320 5
           L 320 60
           C 310 70, 300 75, 270 100
           C 230 135, 215 160, 195 190
           Z
           "
        />



        <path fill="url(#blue)"
          d="
           M 320,90 
           L 320 150
           C 240 205, 250 200, 230 220
           C 215 240, 205 250, 197 275
           C 200 220, 210 200, 250 155
           Z
           " />
      </svg>