<svg xmlns="http://www.w3.org/2000/svg" viewBox="0 0 390 300" height="600" width="780" stroke="#fff"><g fill="#1173b6"><path d="M30 195V30H10v190c40 10 110 30 180 80v-10c-40-40-110-90-160-95q30 5 NaN NaNzM190 300c80-50 100-60 190-80l-5-35c-75 25-143 65-185 105z"/></g><path d="M170 250c-30-30-80-60-115-70V10c75 40 115 80 135 120 5 20 10 30 5 60-15-30-25-60-105-110v90c30 20 60 45 83 80z" fill="#64a43c"/><path fill="#fa9929" d="M195 190c5-80 20-90 125-185v55c-10 10-20 15-50 40-40 35-55 60-75 90z"/><path fill="#0da3da" d="M320 90v60c-80 55-70 50-90 70-15 20-25 30-33 55 3-55 13-75 53-120z"/></svg>